PathFileType	4	(X/Y/Z)	Patient4_TMGait_0pt8_01_right_21.trc.trc
DataRate	CameraRate	NumFrames	NumMarkers	Units	OrigDataRate	OrigDataStartFrame	OrigNumFrames
88.607594936709	88.607594936709	4	33	mm	88.607594936709	53	       141
Frame#	Time	Sacral			L.Shoulder			Chest			R.Shoulder			Neck			R.ASIS			L.ASIS			R.Thigh.Superior			R.Thigh.Lateral			R.Thigh.Inferior			R.Patella			L.Thigh.Superior			L.Thigh.Lateral			L.Thigh.Inferior			L.Patella			L.Shank.Superior			L.Shank.Lateral			L.Shank.Inferior			R.Shank.Superior			R.Shank.Lateral			R.Shank.Inferior			R.Heel			R.Midfoot.Superior			R.Midfoot.Lateral			R.Toe			L.Heel			L.Midfoot.Lateral			L.Midfoot.Superior			L.Toe			L.Elbow			L.Wrist			R.Elbow			R.Wrist			
		X1	Y1	Z1	X2	Y2	Z2	X3	Y3	Z3	X4	Y4	Z4	X5	Y5	Z5	X6	Y6	Z6	X7	Y7	Z7	X8	Y8	Z8	X9	Y9	Z9	X10	Y10	Z10	X11	Y11	Z11	X12	Y12	Z12	X13	Y13	Z13	X14	Y14	Z14	X15	Y15	Z15	X16	Y16	Z16	X17	Y17	Z17	X18	Y18	Z18	X19	Y19	Z19	X20	Y20	Z20	X21	Y21	Z21	X22	Y22	Z22	X23	Y23	Z23	X24	Y24	Z24	X25	Y25	Z25	X26	Y26	Z26	X27	Y27	Z27	X28	Y28	Z28	X29	Y29	Z29	X30	Y30	Z30	X31	Y31	Z31	X32	Y32	Z32	X33	Y33	Z33	

53	23.956857142857	909.040448143472	1010.063160163841	517.012647245559	1065.203756548408	1437.862625665377	327.514451489490	1186.313570558812	1366.748927674582	475.564147047248	1124.123090225490	1437.795230009788	659.055124452844	1069.915511443507	1498.098996287629	483.698471326142	1143.189029456187	946.430136342757	615.232174919746	1107.135519523190	966.393750447652	343.518975475729	1166.052518505004	739.814500069243	584.475172908513	1077.620593728274	634.937205813545	646.227111550518	1147.420724346673	578.253574004699	565.467100020764	1139.388101971768	491.906140923347	570.045537487978	1196.630120877968	791.725712203934	363.388099038854	1153.907847724025	662.293564055053	286.781668169170	1265.467321947479	606.265585421599	338.087364973973	1285.572799003844	521.405724145691	327.956882364663	1233.171064107872	446.447071659429	326.307481856075	1102.035978357417	370.557914875579	291.901145911598	1129.127516622390	241.911282816739	344.327662238535	1110.027500648000	404.691577483781	575.433639946674	1034.916206771494	301.701480977736	633.092598747968	1076.223094263216	207.002079351351	568.779107803199	939.372381600281	44.270311660125	528.910568656104	1109.705468107552	97.582852234477	574.257491739511	1019.222425592588	37.649543743015	607.831040024498	1227.563389145491	42.644580552514	607.623104151240	968.370625839088	128.056396018643	402.302919667750	1024.666256642934	101.904923092445	312.865190830259	1125.960084353106	138.134214300294	322.879075369686	1226.173205310623	53.455836475293	277.623516870745	1029.611167144626	1079.688474587284	233.049002830371	1094.851504126716	828.570504913330	229.450947396087	1207.103677886438	1100.932516030746	783.362384808186	1404.921687263481	931.587053608756	783.322556519823	
54	23.968142857143	907.601287800535	1010.176634764725	518.210634190126	1063.808202784884	1437.216076294682	327.558883566898	1185.642529902498	1366.127152781118	474.983277836644	1124.873490091138	1437.713937061973	658.754601883451	1069.568348584109	1497.721815254884	483.580175098493	1142.163489224075	945.952146150996	614.963123436057	1104.548830391786	966.144653230680	343.364349434071	1162.052207847407	738.690967882391	583.643057490561	1072.620733922190	634.766380005837	646.467674193857	1140.719515882454	577.190132768180	565.239273797155	1131.575161058881	491.334141406771	569.898611679251	1194.874519920355	793.259748231803	363.722618568893	1153.965748869750	663.448025890084	286.716054498709	1265.597002341229	608.628378432571	338.423148663624	1287.421567744293	525.375775955339	328.013101974467	1238.902368834768	449.229678800361	325.859181759888	1112.948104802332	365.832952200865	290.611372801116	1147.819667878797	238.562834829040	342.320940145665	1101.979158050292	404.292253765990	575.382702811279	1026.753454560590	301.467144947596	633.254291695227	1067.497962460897	206.706293429289	568.688866631896	930.258187662208	44.126865362773	528.995043398506	1100.539812335981	97.532355989422	574.247702789220	1010.082815272762	37.589550674570	607.911306001530	1218.419375823998	42.632829186424	607.623553653014	994.451440514294	115.387495342495	399.310565709959	1052.352343017245	92.570858219866	310.075468351315	1151.433419997351	134.286586002632	320.456584224669	1256.318001544025	55.204484434336	275.576667164753	1022.395962412442	1079.349415715469	234.440071358282	1070.951773499040	824.830087402010	229.093537298508	1216.049453122914	1103.894805640550	783.515473657012	1423.367086089038	946.530782162714	779.623665466407	
55	23.979428571429	906.250576448482	1010.232342360789	519.272306380118	1062.616135544052	1436.517818430854	327.475697940925	1185.100251605117	1365.383571239531	474.295225050158	1125.694337779940	1437.514937511148	658.321131791093	1069.333258208299	1497.240407158345	483.327572432658	1141.142892160188	945.367490137415	614.610996025292	1102.090367844233	965.722150378199	343.120248519684	1158.045900014973	737.464509241857	583.013948981700	1067.450310441491	634.558670991113	646.724126612203	1133.939325307351	576.089598696544	565.126634810704	1123.692075269501	490.740105712836	569.855792018004	1192.778903418752	794.213006158324	364.009123980345	1153.277917034869	664.098840733359	286.646149905855	1264.798467823676	610.197581224776	338.826758813217	1288.207068712994	528.781545173875	328.231323228147	1243.760906159367	451.795695313864	325.549012066223	1123.822908324213	360.956368067017	289.120537580310	1166.580519830935	235.694920079307	340.275263777273	1093.817815298215	403.901962283308	575.409287765670	1018.451783058627	301.226074151473	633.437270456776	1058.690405501812	206.418675759630	568.643701901753	921.133454208597	43.951890362834	529.097709478349	1091.353736895174	97.488843480918	574.251289795689	1000.923494530486	37.520698118894	607.997205590960	1209.260392754700	42.665139752260	607.628740488358	1021.375630642935	103.424875931344	395.961127125994	1080.977068745883	84.034690961897	307.129206034579	1177.410616817316	131.259531688621	318.050184629336	1286.841356391321	58.146593449239	273.979175312738	1014.521684701816	1079.322727764786	235.434591761414	1047.796332973431	822.725912464538	228.673121255619	1224.301292129220	1106.823694501566	783.498444309539	1440.487837394770	962.245188073571	775.507934692978	
56	23.990714285714	905.009399318092	1010.234768727835	520.184414287993	1061.637054255802	1435.778122447416	327.263529852863	1184.693682370219	1364.524219456757	473.503696764413	1126.579494636563	1437.201284887702	657.755097899224	1069.209633383098	1496.658848905382	482.949509907302	1140.147537968356	944.681658926802	614.194577599789	1099.788637020109	965.134045679663	342.795482283446	1154.065072012381	736.136385626571	582.607883985471	1062.135040862400	634.317811152652	646.988184841938	1127.118978900222	574.961198717987	565.124299341367	1115.787191738548	490.118244784582	569.898128373077	1190.368784538420	794.559752903852	364.237239548079	1151.836762492206	664.223299371277	286.547049781338	1263.105202051985	610.947362773019	339.269262400231	1287.964653334766	531.591769119735	328.614094205642	1247.739715977790	454.147706149911	325.371761207321	1134.608128060666	356.062283761201	287.443981143464	1185.246965334331	233.459483665491	338.224558697971	1085.582826941886	403.518775181054	575.499336417108	1010.047732850552	300.988673600672	633.640892042192	1049.820695890453	206.141314271665	568.638967100989	911.997435918902	43.754032916528	529.214468382676	1082.146187338934	97.443088105771	574.257655743173	991.747253547623	37.445463460757	608.086916804756	1200.091749521426	42.734468917793	607.640886828239	1048.902119370019	92.458176873759	392.311934852020	1110.303540671076	76.544602787803	304.095186147867	1203.657696108941	129.235363935765	315.711138216383	1317.450251506096	62.431497967034	272.916537435376	1005.994501188670	1079.680109652535	236.025937412152	1025.599590739394	822.051744047466	228.223065409589	1231.884510807614	1109.661243146123	783.292169623103	1456.190675058577	978.604377044489	771.015098507463	
